<?xml version="1.0"?><svg fill="#242428" id="Layer_1" data-name="Layer 1" xmlns="http://www.w3.org/2000/svg" viewBox="0 0 420.11 180.29">
  <defs>
    
  </defs>
  <path class="cls-1" d="M312.24,37.5c-21.57,0-46.77,13.56-46.77,51.78v53.53h23.28v-53.53c0-23.55,12.77-28.49,23.49-28.49v-23.28Z"></path>
  <path class="cls-1" d="M110.67,114.37s0,0,0,0c-.48,1.17-.96,1.45-1.7,1.38-1.3-.12-1.84-1.78-2.68-4.33h0s-24.23-73.93-24.23-73.93h-23.42l26.91,82.12h19.83c1.33,0,2.03.24,2.47,1,.43.75.34,1.32-.14,2.84l-18.35,55.96h23.43l19.6-59.79h.02l26.91-82.12h-23.42l-25.21,76.88Z"></path>
  <path class="cls-1" d="M27.84,119.56c-2.06-.21-3.66-1.94-3.66-4.05,0-.04,0-.08,0-.13v-.02s-.01-114.48-.01-114.48H.9v118.72h19.21c.06,0,.12,0,.18,0,2.17.09,3.89,1.87,3.89,4.06,0,.03,0,.06,0,.09h.01v19.1h52.26v-23.28H28.25c-.14,0-.28,0-.41-.02Z"></path>
  <path class="cls-1" d="M254.43,142.8v-51.64c0-14.44-5.15-27.79-14.51-37.58-9.9-10.37-24.05-16.08-39.82-16.08h-15.61v19.24h0c0,2.25-1.82,4.06-4.07,4.06-.08,0-.15,0-.23-.01h-18.99v82.01h23.28v-77.93h0c0-2.25,1.83-4.06,4.07-4.06.01,0,.02,0,.03,0l.03-.03h11.48c21.45,0,31.05,15.26,31.05,30.38v51.64h23.28Z"></path>
  <path class="cls-1" d="M399.99,60.74h-.03s0,0,0,0c-2.24-.01-4.05-1.83-4.05-4.07,0-.07,0-.13.01-.2h-.01v-18.97h-29.35c-29.03,0-52.65,23.62-52.65,52.65s23.62,52.65,52.65,52.65h6.1v-23.28h-6.1c-16.19,0-29.37-13.17-29.37-29.37s13.17-29.37,29.37-29.37h25.31c2.22.01,4.01,1.79,4.05,4v.15s0,.03,0,.05h0v77.81h23.28V60.74h-19.22Z"></path>
</svg>